<svg width="25" height="24" viewBox="0 0 25 24" fill="none" xmlns="http://www.w3.org/2000/svg">
<path d="M11.6668 11.5834V8.86005L9.30839 10.2217L8.47506 8.77834L10.8335 7.4167L8.47506 6.05505L9.30839 4.61167L11.6668 5.97335V3.25003H13.3335V5.9733L15.6919 4.61167L16.5252 6.05506L14.1668 7.4167L16.5252 8.77834L15.6919 10.2217L13.3335 8.8601V11.5834H11.6668ZM20.383 12.7367L18.0245 14.0984V11.375H16.3578V14.0984L13.9993 12.7367L13.166 14.18L15.5245 15.5417L13.1661 16.9034L13.9994 18.3467L16.3578 16.9851V19.7084H18.0245V16.9851L20.3829 18.3467L21.2162 16.9034L18.8578 15.5417L21.2163 14.18L20.383 12.7367ZM8.64257 16.9846V19.7079H6.9759V16.9847L4.61751 18.3463L3.78418 16.9029L6.14261 15.5413L3.78418 14.1796L4.61751 12.7363L6.9759 14.0979V11.3746H8.64257V14.0979L11.0011 12.7363L11.8344 14.1796L9.47595 15.5413L11.8344 16.9029L11.0011 18.3463L8.64257 16.9846Z" fill="#27272A"/>
</svg>
