<svg width="25" height="24" viewBox="0 0 25 24" fill="none" xmlns="http://www.w3.org/2000/svg">
<path d="M6.66699 7.00001C6.66699 5.15905 8.15938 3.66667 10.0003 3.66667H15.0003C16.8412 3.66667 18.3337 5.15905 18.3337 7.00001C18.3337 7.99558 17.8972 8.88922 17.2052 9.5C17.8972 10.1108 18.3337 11.0044 18.3337 12C18.3337 13.8409 16.8412 15.3333 15.0003 15.3333C14.3932 15.3333 13.8239 15.171 13.3337 14.8874V17C13.3337 18.8409 11.8412 20.3333 10.0003 20.3333C8.15938 20.3333 6.66699 18.8409 6.66699 17C6.66699 16.0044 7.10346 15.1108 7.79548 14.5C7.10346 13.8893 6.66699 12.9956 6.66699 12C6.66699 11.0044 7.10346 10.1108 7.79548 9.5C7.10346 8.88922 6.66699 7.99558 6.66699 7.00001ZM11.667 10.3333H10.0003C9.07985 10.3333 8.33366 11.0795 8.33366 12C8.33366 12.9205 9.07985 13.6667 10.0003 13.6667H11.667V10.3333ZM13.3337 12C13.3337 12.9205 14.0798 13.6667 15.0003 13.6667C15.9208 13.6667 16.667 12.9205 16.667 12C16.667 11.0795 15.9208 10.3333 15.0003 10.3333C14.0798 10.3333 13.3337 11.0795 13.3337 12ZM15.0003 8.66667C15.9208 8.66667 16.667 7.92048 16.667 7.00001C16.667 6.07953 15.9208 5.33334 15.0003 5.33334H13.3337V8.66667H15.0003ZM10.0003 5.33334C9.07985 5.33334 8.33366 6.07953 8.33366 7.00001C8.33366 7.92048 9.07985 8.66667 10.0003 8.66667H11.667V5.33334H10.0003ZM11.667 15.3333H10.0003C9.07985 15.3333 8.33366 16.0795 8.33366 17C8.33366 17.9205 9.07985 18.6667 10.0003 18.6667C10.9208 18.6667 11.667 17.9205 11.667 17V15.3333Z" fill="#27272A"/>
</svg>
