<svg width="25" height="24" viewBox="0 0 25 24" fill="none" xmlns="http://www.w3.org/2000/svg">
<path d="M12.5 21C7.5293 21 3.5 16.9707 3.5 12C3.5 7.02935 7.5293 3.00005 12.5 3.00005C17.4707 3.00005 21.5 7.02935 21.5 12C21.5 16.9707 17.4707 21 12.5 21ZM10.439 18.9003C9.55107 17.0169 9.03668 14.9792 8.9243 12.9H5.3558C5.53093 14.2851 6.10453 15.5894 7.00691 16.6546C7.90929 17.7198 9.10161 18.5 10.439 18.9003ZM10.727 12.9C10.8629 15.0951 11.4902 17.157 12.5 18.9768C13.5371 17.1089 14.1429 15.0326 14.273 12.9H10.727ZM19.6442 12.9H16.0757C15.9633 14.9792 15.4489 17.0169 14.561 18.9003C15.8984 18.5 17.0907 17.7198 17.9931 16.6546C18.8955 15.5894 19.4691 14.2851 19.6442 12.9ZM5.3558 11.1H8.9243C9.03668 9.02085 9.55107 6.98316 10.439 5.09975C9.10161 5.50014 7.90929 6.28032 7.00691 7.34551C6.10453 8.4107 5.53093 9.71504 5.3558 11.1ZM10.7279 11.1H14.2721C14.1423 8.96758 13.5368 6.89122 12.5 5.02325C11.4629 6.89115 10.8571 8.96751 10.727 11.1H10.7279ZM14.561 5.09975C15.4489 6.98316 15.9633 9.02085 16.0757 11.1H19.6442C19.4691 9.71504 18.8955 8.4107 17.9931 7.34551C17.0907 6.28032 15.8984 5.50014 14.561 5.09975Z" fill="#27272A"/>
</svg>
