<svg width="72" height="68" viewBox="0 0 72 68" fill="none" xmlns="http://www.w3.org/2000/svg">
<g filter="url(#filter0_d_1086_629)">
<path d="M25.2 20H46.8C47.1183 20 47.4235 20.1264 47.6485 20.3515C47.8736 20.5765 48 20.8817 48 21.2V38.8C48 39.1183 47.8736 39.4235 47.6485 39.6485C47.4235 39.8736 47.1183 40 46.8 40H25.2C24.8817 40 24.5765 39.8736 24.3515 39.6485C24.1264 39.4235 24 39.1183 24 38.8V21.2C24 20.8817 24.1264 20.5765 24.3515 20.3515C24.5765 20.1264 24.8817 20 25.2 20ZM36.072 30.4196L28.3776 23.8856L26.8236 25.7144L36.0876 33.5804L45.1848 25.7084L43.6152 23.8928L36.072 30.4196Z" fill="url(#paint0_radial_1086_629)"/>
</g>
<defs>
<filter id="filter0_d_1086_629" x="-4" y="-6" width="80" height="80" filterUnits="userSpaceOnUse" color-interpolation-filters="sRGB">
<feFlood flood-opacity="0" result="BackgroundImageFix"/>
<feColorMatrix in="SourceAlpha" type="matrix" values="0 0 0 0 0 0 0 0 0 0 0 0 0 0 0 0 0 0 127 0" result="hardAlpha"/>
<feOffset dy="4"/>
<feGaussianBlur stdDeviation="12"/>
<feColorMatrix type="matrix" values="0 0 0 0 0.964706 0 0 0 0 0.27451 0 0 0 0 0.0901961 0 0 0 0.3 0"/>
<feBlend mode="normal" in2="BackgroundImageFix" result="effect1_dropShadow_1086_629"/>
<feBlend mode="normal" in="SourceGraphic" in2="effect1_dropShadow_1086_629" result="shape"/>
</filter>
<radialGradient id="paint0_radial_1086_629" cx="0" cy="0" r="1" gradientUnits="userSpaceOnUse" gradientTransform="translate(48 30) rotate(180) scale(24 20)">
<stop stopColor="#F64617"/>
<stop offset="1" stopColor="#FD6E32"/>
</radialGradient>
</defs>
</svg>
