<svg width="25" height="24" viewBox="0 0 25 24" fill="none" xmlns="http://www.w3.org/2000/svg">
<path d="M20.5999 15.9782V19.1606C20.6 19.3885 20.5137 19.6079 20.3583 19.7746C20.203 19.9413 19.9902 20.0429 19.7629 20.0588C19.3696 20.0858 19.0483 20.1002 18.7999 20.1002C10.8466 20.1002 4.3999 13.6535 4.3999 5.70024C4.3999 5.45184 4.4134 5.13054 4.4413 4.73724C4.45725 4.50994 4.55883 4.29715 4.72553 4.14181C4.89223 3.98646 5.11164 3.90014 5.3395 3.90024H8.5219C8.63354 3.90013 8.74123 3.94151 8.82406 4.01636C8.90689 4.0912 8.95894 4.19416 8.9701 4.30524C8.9908 4.51224 9.0097 4.67694 9.0277 4.80204C9.20656 6.05027 9.5731 7.26429 10.1149 8.40294C10.2004 8.58294 10.1446 8.79804 9.9826 8.91324L8.0404 10.301C9.22791 13.068 11.433 15.2731 14.2 16.4606L15.586 14.522C15.6427 14.4428 15.7253 14.386 15.8195 14.3615C15.9138 14.337 16.0136 14.3464 16.1017 14.3879C17.2402 14.9287 18.4539 15.2943 19.7017 15.4724C19.8268 15.4904 19.9915 15.5102 20.1967 15.53C20.3076 15.5414 20.4104 15.5936 20.485 15.6764C20.5597 15.7592 20.6009 15.8667 20.6008 15.9782H20.5999Z" fill="#27272A"/>
</svg>
