<svg width="25" height="24" viewBox="0 0 25 24" fill="none" xmlns="http://www.w3.org/2000/svg">
<path d="M8.0002 4.80005V19.2H17.0002V4.80005H8.0002ZM7.1002 3.00005H17.9002C18.1389 3.00005 18.3678 3.09487 18.5366 3.26365C18.7054 3.43243 18.8002 3.66135 18.8002 3.90005V20.1C18.8002 20.3387 18.7054 20.5677 18.5366 20.7364C18.3678 20.9052 18.1389 21 17.9002 21H7.1002C6.8615 21 6.63258 20.9052 6.4638 20.7364C6.29502 20.5677 6.2002 20.3387 6.2002 20.1V3.90005C6.2002 3.66135 6.29502 3.43243 6.4638 3.26365C6.63258 3.09487 6.8615 3.00005 7.1002 3.00005ZM12.5002 16.5C12.7389 16.5 12.9678 16.5949 13.1366 16.7636C13.3054 16.9324 13.4002 17.1613 13.4002 17.4C13.4002 17.6387 13.3054 17.8677 13.1366 18.0364C12.9678 18.2052 12.7389 18.3 12.5002 18.3C12.2615 18.3 12.0326 18.2052 11.8638 18.0364C11.695 17.8677 11.6002 17.6387 11.6002 17.4C11.6002 17.1613 11.695 16.9324 11.8638 16.7636C12.0326 16.5949 12.2615 16.5 12.5002 16.5Z" fill="#27272A"/>
</svg>
