<svg width="25" height="24" viewBox="0 0 25 24" fill="none" xmlns="http://www.w3.org/2000/svg">
<path d="M11.5833 4.21542C11.8718 3.34486 13.1282 3.34486 13.4167 4.21542L14.8805 8.63176C15.0096 9.02109 15.3797 9.28468 15.7973 9.28468H20.5342C21.468 9.28468 21.8562 10.456 21.1008 10.9941L17.2685 13.7235C16.9307 13.9641 16.7893 14.3906 16.9184 14.78L18.3822 19.1963C18.6707 20.0669 17.6543 20.7908 16.8989 20.2528L13.0666 17.5233C12.7287 17.2827 12.2713 17.2827 11.9334 17.5233L8.10115 20.2528C7.34571 20.7908 6.32928 20.0669 6.61783 19.1963L8.08163 14.78C8.21067 14.3906 8.06931 13.9641 7.73147 13.7235L3.89919 10.9941C3.14375 10.456 3.532 9.28468 4.46576 9.28468H9.20272C9.62031 9.28468 9.99042 9.02109 10.1195 8.63176L11.5833 4.21542Z" fill="#27272A"/>
</svg>
