<svg width="25" height="24" viewBox="0 0 25 24" fill="none" xmlns="http://www.w3.org/2000/svg">
<path d="M12.4998 13.8V15.6C11.0676 15.6 9.69412 16.1689 8.68143 17.1816C7.66873 18.1943 7.0998 19.5678 7.0998 21H5.2998C5.2998 19.0904 6.05837 17.2591 7.40864 15.9088C8.7589 14.5586 10.5902 13.8 12.4998 13.8ZM12.4998 12.9C9.5163 12.9 7.0998 10.4835 7.0998 7.50001C7.0998 4.51651 9.5163 2.10001 12.4998 2.10001C15.4833 2.10001 17.8998 4.51651 17.8998 7.50001C17.8998 10.4835 15.4833 12.9 12.4998 12.9ZM12.4998 11.1C14.4888 11.1 16.0998 9.48901 16.0998 7.50001C16.0998 5.51101 14.4888 3.90001 12.4998 3.90001C10.5108 3.90001 8.8998 5.51101 8.8998 7.50001C8.8998 9.48901 10.5108 11.1 12.4998 11.1ZM17.8998 20.55L15.2547 21.9405L15.7596 18.9957L13.6203 16.9095L16.5777 16.4793L17.8998 13.8L19.2228 16.4793L22.1793 16.9095L20.04 18.9957L20.544 21.9405L17.8998 20.55Z" fill="#27272A"/>
</svg>
